<?xml version="1.0" encoding="UTF-8" standalone="no"?>
<svg
   version="1.0"
   width="182.15527pt"
   height="220.20244pt"
   viewBox="0 0 182.15527 220.20244"
   preserveAspectRatio="xMidYMid meet"
   id="svg14"
   sodipodi:docname="58c3e0ef1e2e49b229a1d66aef88b559.svg"
   xmlns:inkscape="http://www.inkscape.org/namespaces/inkscape"
   xmlns:sodipodi="http://sodipodi.sourceforge.net/DTD/sodipodi-0.dtd"
   xmlns="http://www.w3.org/2000/svg"
   xmlns:svg="http://www.w3.org/2000/svg">
  <defs
     id="defs18" />
  <sodipodi:namedview
     id="namedview16"
     pagecolor="#ffffff"
     bordercolor="#666666"
     borderopacity="1.0"
     inkscape:pageshadow="2"
     inkscape:pageopacity="0.0"
     inkscape:pagecheckerboard="0"
     inkscape:document-units="pt" />
  <g
     transform="matrix(0.1,0,0,-0.1,-108.19139,1492.3866)"
     fill="#fc6202"
     stroke="none"
     id="g12">
    <path
       d="m 2565,14881 c -21,-38 -37,-54 -67,-66 -28,-11 -38,-20 -34,-30 3,-8 2,-15 -3,-15 -4,0 -7,-14 -6,-31 2,-41 -37,-91 -56,-71 -24,23 -32,12 -26,-35 4,-33 1,-54 -8,-67 -14,-18 -15,-18 -49,10 -19,16 -35,37 -35,47 -1,19 -21,24 -21,5 0,-18 11,-31 43,-51 38,-25 44,-45 18,-63 -11,-8 -21,-22 -21,-30 0,-8 -7,-25 -15,-38 -15,-22 -14,-28 11,-80 26,-54 26,-57 10,-97 -16,-40 -16,-40 4,-34 26,8 25,-3 -2,-34 -14,-16 -8,-13 13,7 82,76 81,10 -3,-101 -67,-90 -84,-116 -53,-80 21,24 55,31 55,12 0,-6 -10,-25 -22,-42 l -22,-32 22,19 c 21,18 21,18 27,-10 4,-16 8,-33 9,-38 1,-4 14,17 29,48 20,40 33,56 47,56 22,0 22,-1 24,-74 1,-45 -2,-53 -33,-81 l -34,-32 -4,-114 -3,-114 19,40 c 21,42 22,42 40,-29 9,-35 8,-42 -15,-70 -23,-26 -25,-36 -20,-78 4,-26 4,-48 1,-48 -13,0 -67,132 -62,151 4,13 0,22 -11,27 -9,3 -23,12 -30,19 -22,22 -33,4 -28,-45 6,-68 7,-69 15,-47 7,18 9,17 24,-12 10,-18 17,-51 17,-75 0,-24 6,-67 14,-96 7,-29 12,-64 10,-78 -6,-59 -28,-129 -50,-162 -14,-19 -24,-50 -24,-68 0,-21 -5,-34 -12,-34 -7,0 -65,51 -129,113 -103,99 -117,117 -123,153 -3,23 -12,47 -20,53 -8,7 -18,27 -21,44 -4,18 -14,40 -22,49 -8,9 -14,27 -13,40 3,38 1,48 -12,48 -7,0 -23,19 -35,41 -21,38 -21,43 -8,70 17,32 20,59 6,59 -5,0 -12,-7 -15,-16 -6,-15 -8,-15 -25,0 -26,24 -35,5 -20,-38 11,-29 10,-42 -6,-83 -10,-26 -26,-63 -37,-80 -16,-27 -17,-32 -4,-27 22,8 20,-12 -5,-53 -12,-18 -18,-40 -15,-48 3,-8 1,-15 -4,-15 -6,0 -10,-16 -10,-36 0,-29 -12,-50 -61,-110 -34,-42 -70,-81 -80,-87 -11,-7 -19,-17 -19,-23 0,-10 -34,-44 -72,-73 -14,-11 -19,-8 -33,19 -9,17 -13,35 -10,40 3,6 1,10 -4,10 -15,0 -63,99 -57,117 3,8 3,20 -1,26 -18,30 -10,70 21,97 24,22 28,31 19,41 -9,9 -19,9 -44,0 -43,-15 -50,-5 -15,22 20,16 29,34 33,67 6,47 22,68 35,47 5,-8 8,-6 8,6 0,26 23,16 31,-14 l 6,-24 7,27 c 9,31 0,68 -17,68 -7,-1 -30,-9 -52,-20 -22,-11 -46,-19 -52,-20 -16,0 -17,62 -2,77 8,8 8,17 -1,33 -9,16 -9,25 1,36 17,20 28,17 41,-11 9,-19 14,-22 25,-14 17,15 17,34 -3,54 -12,12 -17,40 -20,107 -3,84 -1,95 26,149 17,32 44,74 61,93 34,39 35,69 2,74 -23,3 -42,-12 -80,-63 -18,-24 -24,-27 -32,-16 -8,12 -12,12 -25,2 -9,-8 -16,-21 -16,-30 0,-28 -28,-58 -60,-65 -34,-6 -60,-51 -60,-103 0,-15 -11,-50 -24,-78 -13,-27 -27,-58 -30,-68 -4,-13 -15,-17 -41,-15 -19,1 -40,-3 -46,-9 -16,-16 -3,-43 20,-43 30,0 50,-46 42,-95 -4,-22 -4,-58 -1,-81 4,-22 3,-49 -1,-60 -4,-10 -8,-43 -8,-72 -1,-46 2,-55 19,-59 11,-3 20,-9 20,-13 0,-5 3,-15 6,-23 4,-12 -3,-16 -28,-19 l -33,-3 35,-19 c 19,-10 37,-20 39,-22 2,-2 -11,-21 -28,-43 -26,-32 -29,-43 -22,-62 l 10,-24 v 26 c 1,22 27,59 43,59 3,0 13,-25 23,-55 9,-30 25,-61 35,-68 10,-7 19,-21 21,-31 4,-19 39,-45 91,-68 15,-7 32,-24 37,-38 l 9,-25 1,28 c 1,16 7,27 15,27 18,0 26,-21 28,-73 1,-39 2,-38 7,13 l 6,55 40,3 c 40,3 42,5 114,117 40,63 77,113 82,109 5,-3 9,4 9,15 0,28 37,48 42,23 3,-9 5,10 6,43 2,72 27,151 49,159 17,7 32,-8 34,-34 1,-8 4,-2 8,14 7,36 31,47 31,15 0,-22 0,-22 15,-3 13,18 14,16 15,-22 0,-22 5,-45 11,-51 6,-6 12,-50 15,-98 4,-92 14,-130 14,-57 0,43 15,56 27,25 4,-10 10,-21 15,-24 10,-7 14,-29 22,-119 4,-35 11,-69 16,-74 11,-11 14,6 10,72 -1,23 3,42 8,42 15,0 44,-50 38,-65 -3,-8 0,-12 7,-9 15,5 49,-29 71,-71 10,-19 16,-24 16,-13 0,16 10,17 83,15 62,-3 82,-7 83,-18 1,-8 2,-27 3,-44 1,-23 3,-27 11,-15 5,8 10,27 10,42 0,39 10,58 30,58 22,0 30,-27 30,-104 0,-77 9,-66 20,22 6,41 22,97 39,134 34,73 37,93 27,166 -6,42 -5,58 9,79 16,24 18,24 27,9 6,-10 7,-27 4,-39 -3,-11 -1,-26 4,-32 5,-6 10,-33 13,-60 2,-31 4,-14 5,42 1,51 6,112 12,135 5,24 12,55 15,71 6,28 25,38 25,12 0,-9 6,-12 15,-9 23,9 21,124 -1,124 -12,0 -15,6 -9,23 3,12 9,32 12,45 3,12 9,22 14,22 12,0 29,-35 29,-59 0,-25 10,-32 38,-24 25,6 28,32 11,82 -7,19 -18,31 -29,31 -14,0 -18,7 -17,28 3,40 28,55 63,37 27,-14 29,-13 47,16 17,27 18,36 8,88 -12,63 -7,95 15,87 24,-9 15,14 -17,46 -24,25 -33,28 -39,17 -19,-31 -22,4 -4,56 15,45 16,59 6,75 -14,23 2,103 26,132 20,25 8,64 -28,84 -35,21 -39,30 -47,106 l -6,59 64,-7 c 58,-5 66,-4 92,18 22,19 25,27 15,35 -31,24 -38,24 -48,-3 -9,-23 -14,-26 -41,-20 -18,3 -38,6 -46,6 -11,0 -14,7 -11,25 3,14 1,25 -4,25 -5,0 -7,4 -3,9 8,14 -23,41 -40,35 -19,-8 -32,80 -15,101 6,8 15,14 18,13 19,-2 30,3 36,17 4,13 -1,14 -34,9 -29,-5 -41,-3 -43,7 -2,8 -16,63 -30,123 -15,61 -31,114 -36,119 -5,5 -20,-12 -36,-42 z"
       id="path2" />
    <path
       d="m 2214,14308 c -4,-7 -3,-8 4,-4 12,7 16,16 8,16 -3,0 -8,-5 -12,-12 z"
       id="path4" />
    <path
       d="m 1713,13373 c 4,-3 10,-3 14,0 3,4 0,7 -7,7 -7,0 -10,-3 -7,-7 z"
       id="path6" />
    <path
       d="m 2101,12904 c 0,-11 3,-14 6,-6 3,7 2,16 -1,19 -3,4 -6,-2 -5,-13 z"
       id="path8" />
    <path
       d="m 2440,12730 c 0,-7 3,-10 7,-7 3,4 3,10 0,14 -4,3 -7,0 -7,-7 z"
       id="path10" />
  </g>
</svg>
